<svg width="12" height="12" viewBox="0 0 12 12" fill="none" xmlns="http://www.w3.org/2000/svg">
<path d="M10.6667 0H1.33333C0.6 0 0 0.6 0 1.33333V10.6667C0 11.4 0.6 12 1.33333 12H10.6667C11.4 12 12 11.4 12 10.6667V1.33333C12 0.6 11.4 0 10.6667 0ZM5.14 8.86C5.07832 8.9218 5.00507 8.97083 4.92442 9.00429C4.84377 9.03774 4.75731 9.05496 4.67 9.05496C4.58269 9.05496 4.49623 9.03774 4.41558 9.00429C4.33494 8.97083 4.26168 8.9218 4.2 8.86L1.80667 6.46667C1.74495 6.40495 1.69599 6.33167 1.66258 6.25103C1.62918 6.17039 1.61199 6.08395 1.61199 5.99667C1.61199 5.90938 1.62918 5.82295 1.66258 5.7423C1.69599 5.66166 1.74495 5.58839 1.80667 5.52667C1.86839 5.46495 1.94166 5.41599 2.0223 5.38258C2.10295 5.34918 2.18938 5.33199 2.27667 5.33199C2.36395 5.33199 2.45039 5.34918 2.53103 5.38258C2.61167 5.41599 2.68495 5.46495 2.74667 5.52667L4.66667 7.44667L9.25333 2.86C9.37799 2.73535 9.54705 2.66532 9.72333 2.66532C9.89962 2.66532 10.0687 2.73535 10.1933 2.86C10.318 2.98465 10.388 3.15372 10.388 3.33C10.388 3.50628 10.318 3.67535 10.1933 3.8L5.14 8.86Z" fill="black"/>
</svg>
