<svg width="20" height="20" viewBox="0 0 20 20" fill="none" xmlns="http://www.w3.org/2000/svg">
<path d="M10.0013 16.6666C11.7694 16.6666 13.4651 15.9642 14.7153 14.714C15.9656 13.4638 16.668 11.7681 16.668 9.99996C16.668 8.23185 15.9656 6.53616 14.7153 5.28591C13.4651 4.03567 11.7694 3.33329 10.0013 3.33329C8.23319 3.33329 6.5375 4.03567 5.28726 5.28591C4.03701 6.53616 3.33464 8.23185 3.33464 9.99996C3.33464 11.7681 4.03701 13.4638 5.28726 14.714C6.5375 15.9642 8.23319 16.6666 10.0013 16.6666ZM10.0013 18.3333C5.3988 18.3333 1.66797 14.6025 1.66797 9.99996C1.66797 5.39746 5.3988 1.66663 10.0013 1.66663C14.6038 1.66663 18.3346 5.39746 18.3346 9.99996C18.3346 14.6025 14.6038 18.3333 10.0013 18.3333ZM9.16797 13.3333H10.8346V15H9.16797V13.3333ZM9.16797 4.99996H10.8346V11.6666H9.16797V4.99996Z" fill="#DA3438"/>
</svg>
