<svg width="20" height="20" viewBox="0 0 20 20" fill="none" xmlns="http://www.w3.org/2000/svg">
<path d="M5.72655 14.2742C4.18905 13.1825 2.97239 11.7625 2.28489 10.8659C2.09264 10.6183 1.98828 10.3138 1.98828 10.0004C1.98828 9.68703 2.09264 9.38254 2.28489 9.13502C3.52905 7.51085 6.51405 4.16669 9.99905 4.16669C11.5624 4.16669 13.0241 4.83919 14.2741 5.72835" stroke="black" stroke-width="2" stroke-linecap="round" stroke-linejoin="round"/>
<path d="M11.7745 8.23918C11.5431 8.0039 11.2674 7.81677 10.9633 7.68858C10.6592 7.56039 10.3327 7.49368 10.0027 7.4923C9.67265 7.49092 9.34562 7.55489 9.04046 7.68053C8.73529 7.80616 8.45801 7.99097 8.22463 8.2243C7.99124 8.45763 7.80637 8.73486 7.68066 9.04C7.55495 9.34514 7.4909 9.67215 7.49221 10.0022C7.49351 10.3322 7.56014 10.6587 7.68826 10.9628C7.81638 11.2669 8.00344 11.5427 8.23866 11.7742" stroke="black" stroke-width="2" stroke-linecap="round" stroke-linejoin="round"/>
<path d="M3.33203 16.6667L16.6654 3.33334" stroke="black" stroke-width="2" stroke-linecap="round" stroke-linejoin="round"/>
<path d="M8.33203 15.5867C8.87304 15.7477 9.43424 15.8308 9.9987 15.8333C13.4837 15.8333 16.4687 12.4892 17.7129 10.865C17.9051 10.6173 18.0093 10.3126 18.0092 9.99902C18.009 9.68547 17.9045 9.38089 17.712 9.13333C17.2748 8.56291 16.8057 8.0176 16.307 7.5" stroke="black" stroke-width="2" stroke-linecap="round" stroke-linejoin="round"/>
</svg>
