<svg width="20" height="20" viewBox="0 0 20 20" fill="none" xmlns="http://www.w3.org/2000/svg">
<path d="M17.6083 8.91847C18.0192 9.45595 18.0192 10.1815 17.6083 10.7182C16.314 12.4078 13.2087 15.8866 9.58336 15.8866C5.95798 15.8866 2.85273 12.4078 1.55845 10.7182C1.35853 10.4608 1.25 10.1442 1.25 9.81832C1.25 9.49243 1.35853 9.17583 1.55845 8.91847C2.85273 7.22888 5.95798 3.75 9.58336 3.75C13.2087 3.75 16.314 7.22888 17.6083 8.91847V8.91847Z" stroke="black" stroke-width="2" stroke-linecap="round" stroke-linejoin="round"/>
<path d="M9.58346 12.4189C11.0198 12.4189 12.1842 11.2546 12.1842 9.81824C12.1842 8.38191 11.0198 7.21753 9.58346 7.21753C8.14713 7.21753 6.98276 8.38191 6.98276 9.81824C6.98276 11.2546 8.14713 12.4189 9.58346 12.4189Z" stroke="black" stroke-width="2" stroke-linecap="round" stroke-linejoin="round"/>
</svg>
